# xmcd
#
# Track frame offsets:
#	150
#	13099
#	27945
#	51089
#	68705
#	84578
#	106041
#	116465
#	130673
#	149857
#
# Disc length: 2254 seconds
#
# Revision: 1
# Processed by: cddbd v1.5.2PL0 Copyright (c) Steve Scherf et al.
# Submitted via: audiograbber 1.80
#
DISCID=8308cc0a
DTITLE=Alice Phoebe Lou - Paper Castles
DYEAR=1900
DGENRE=
TTITLE0=Little Spark
TTITLE1=Nostalgia
TTITLE2=Galaxies
TTITLE3=Paper Castles
TTITLE4=Fynbos
TTITLE5=Something Holy
TTITLE6=Skin Crawl
TTITLE7=My Outside
TTITLE8=New Song
TTITLE9=Ocean
EXTD=
EXTT0=
EXTT1=
EXTT2=
EXTT3=
EXTT4=
EXTT5=
EXTT6=
EXTT7=
EXTT8=
EXTT9=
PLAYORDER=
